<svg width="526" height="666" xmlns="http://www.w3.org/2000/svg" xmlns:xlink="http://www.w3.org/1999/xlink" overflow="hidden"><defs><clipPath id="clip0"><rect x="1937" y="935" width="526" height="666"/></clipPath></defs><g clip-path="url(#clip0)" transform="translate(-1937 -935)"><path d="M2200 935C2228.72 935 2252 958.281 2252 987L2252 1428C2252 1456.72 2228.72 1480 2200 1480L2200 1480C2171.28 1480 2148 1456.72 2148 1428L2148 987C2148 958.281 2171.28 935 2200 935Z" fill="#FFFFFF" fill-rule="evenodd"/><path d="M1937 1549.5C1937 1521.06 1960.06 1498 1988.5 1498L2411.5 1498C2439.94 1498 2463 1521.06 2463 1549.5L2463 1549.5C2463 1577.94 2439.94 1601 2411.5 1601L1988.5 1601C1960.06 1601 1937 1577.94 1937 1549.5Z" fill="#FFFFFF" fill-rule="evenodd"/><path d="M2010.97 1266.31C2026.32 1250.4 2051.67 1249.95 2067.58 1265.31L2222.96 1415.29C2238.87 1430.64 2239.31 1455.99 2223.96 1471.9L2223.96 1471.9C2208.6 1487.81 2183.25 1488.26 2167.34 1472.9L2011.97 1322.92C1996.06 1307.56 1995.61 1282.22 2010.97 1266.31Z" fill="#FFFFFF" fill-rule="evenodd"/><path d="M2382.65 1262.62C2398.56 1277.98 2399.01 1303.32 2383.65 1319.23L2233.65 1474.59C2218.29 1490.5 2192.95 1490.95 2177.04 1475.59L2177.04 1475.59C2161.13 1460.23 2160.68 1434.88 2176.04 1418.97L2326.04 1263.61C2341.4 1247.7 2366.75 1247.26 2382.65 1262.62Z" fill="#FFFFFF" fill-rule="evenodd"/></g></svg>