<svg width="2108" height="2109" xmlns="http://www.w3.org/2000/svg" xmlns:xlink="http://www.w3.org/1999/xlink" overflow="hidden"><defs><clipPath id="clip0"><rect x="36" y="183" width="2108" height="2109"/></clipPath></defs><g clip-path="url(#clip0)" transform="translate(-36 -183)"><path d="M883 371.045C883 267.191 967.191 183 1071.05 183L1107.95 183C1211.81 183 1296 267.191 1296 371.045L1296 2103.95C1296 2207.81 1211.81 2292 1107.95 2292L1071.05 2292C967.191 2292 883 2207.81 883 2103.95Z" fill-rule="evenodd"/><path d="M1955.95 1031C2059.81 1031 2144 1115.19 2144 1219.05L2144 1255.95C2144 1359.81 2059.81 1444 1955.95 1444L224.046 1444C120.191 1444 36 1359.81 36 1255.95L36 1219.05C36 1115.19 120.191 1031 224.046 1031Z" fill-rule="evenodd"/><path d="M1556.44 478.95C1629.83 405.555 1748.83 405.555 1822.22 478.95L1848.3 505.031C1921.7 578.426 1921.7 697.422 1848.3 770.817L623.131 1995.99C549.736 2069.39 430.739 2069.38 357.344 1995.99L331.264 1969.91C257.869 1896.51 257.869 1777.52 331.264 1704.12Z" fill-rule="evenodd"/><path d="M331.264 770.876C257.869 697.481 257.869 578.485 331.264 505.09L357.344 479.009C430.739 405.614 549.736 405.614 623.131 479.009L1848.3 1704.18C1921.7 1777.58 1921.7 1896.57 1848.3 1969.97L1822.22 1996.05C1748.83 2069.44 1629.83 2069.44 1556.44 1996.05Z" fill-rule="evenodd"/><path d="M390 1237.5C390 850.625 703.401 537 1090 537 1476.6 537 1790 850.625 1790 1237.5 1790 1624.38 1476.6 1938 1090 1938 703.401 1938 390 1624.38 390 1237.5Z" fill-rule="evenodd"/></g></svg>